<?xml version="1.0" encoding="utf-8"?>
<!-- Generator: Adobe Illustrator 22.0.1, SVG Export Plug-In . SVG Version: 6.00 Build 0)  -->
<svg version="1.1" id="b7505644-d6f2-4fcc-a32a-3fec5061f932"
	 xmlns="http://www.w3.org/2000/svg" xmlns:xlink="http://www.w3.org/1999/xlink" x="0px" y="0px" viewBox="0 0 176 24.2"
	 style="enable-background:new 0 0 176 24.2;" xml:space="preserve">
<style type="text/css">
	.st0{fill:#555555;}
	.st1{fill:#86AF49;}
</style>
<title>logo</title>
<g id="_x34_e7f2e50-a164-48af-87da-04a2b3e078d4">
	<path class="st0" d="M165.6,6.1c0-1.2-0.9-2.1-2.1-2.1c-0.1,0-0.1,0-0.2,0h-2.2v6.6h0.9V8.1h1.3l1.5,2.5h1.1L164.2,8
		C165,7.7,165.6,7,165.6,6.1z M163.2,7.3H162V4.8h1.2c0.7-0.1,1.4,0.4,1.5,1.1c0,0.1,0,0.1,0,0.2C164.7,6.9,164.1,7.3,163.2,7.3
		L163.2,7.3z M164.6,20.7h0.9v-6.6h-0.9V20.7z M96.1,6.2l4.1,4.5l0,0V4h-0.9v4.4l-4.1-4.5l0,0v6.7h0.9V6.2z M96.1,17.2
		c0.4-0.3,0.7-0.8,0.7-1.4c0-1.1-0.7-1.7-2-1.7h-2.3v6.6h2.7c1.3,0,2.2-0.7,2.2-1.9C97.5,18,96.9,17.3,96.1,17.2z M93.4,14.9h1.3
		c0.8,0,1.2,0.4,1.2,1c0,0.6-0.4,1-1,1c0,0-0.1,0-0.1,0h-1.4V14.9z M95.1,19.8h-1.7v-2.1H95c1,0,1.5,0.4,1.5,1.1
		S95.9,19.8,95.1,19.8z M142.2,14.9h2.4v5.8h0.9v-5.8h2.3v-0.8h-5.6L142.2,14.9z M112.3,9.8h-3.2V7.7h2.7V6.9h-2.7v-2h3.1V4h-4v6.6
		h4.1V9.8z M93.4,4h-0.9v6.6h0.9V4z M138.2,6.2l4.1,4.5l0,0V4h-0.9v4.4l-4.1-4.5l0,0v6.7h0.9V6.2z M154.8,10.6l0.6-1.3h3l0.6,1.3
		h0.9l-3-6.7l0,0l-3,6.7H154.8z M156.9,5.9l1.1,2.6h-2.2L156.9,5.9z M171.3,18.5l-4.1-4.5h-0.1v6.7h0.9v-4.5l4.1,4.6h0.1v-6.7h-0.9
		V18.5z M131.6,9.3h3l0.5,1.3h1l-3-6.7l0,0l-3,6.7h0.9L131.6,9.3z M133.1,5.9l1.1,2.6H132L133.1,5.9z M168.8,10.6h1V7.8l2.4-3.7
		h-1.1l-1.8,2.8l-1.8-2.8h-1.1l2.4,3.7L168.8,10.6z M129.5,9.8h-3.1V4h-0.9v6.6h4V9.8z M133.4,14l-3,6.7h1l0.6-1.4h2.9l0.6,1.4h1
		l-3-6.7L133.4,14z M132.3,18.5l1.1-2.5l1.2,2.5H132.3z M119.9,14.1h-2v6.6h2c2.3,0,3.6-1.3,3.6-3.3S122.2,14.1,119.9,14.1
		L119.9,14.1z M119.9,19.8h-1v-4.9h1c1.7,0,2.7,0.9,2.7,2.5S121.6,19.8,119.9,19.8L119.9,19.8z M153.9,19.9c-1.3,0-2.4-1.1-2.4-2.4
		c0,0,0-0.1,0-0.1c-0.1-1.3,0.9-2.5,2.2-2.6c0.1,0,0.1,0,0.2,0c0.7,0,1.4,0.3,1.8,0.8l0.6-0.7c-1.4-1.3-3.5-1.2-4.8,0.2
		c-0.6,0.6-0.9,1.4-0.9,2.3c-0.1,1.8,1.4,3.3,3.2,3.4c0,0,0.1,0,0.1,0c0.9,0,1.8-0.3,2.4-1l-0.6-0.7
		C155.3,19.6,154.6,19.9,153.9,19.9z M116.8,8c0.8-0.3,1.3-1.1,1.3-1.9c0-1.2-0.9-2.1-2.1-2.1c-0.1,0-0.1,0-0.2,0h-2.2v6.6h0.9V8.1
		h1.3l1.6,2.5h1L116.8,8z M115.7,7.3h-1.2V4.8h1.2c0.7-0.1,1.4,0.4,1.5,1.1c0,0.1,0,0.1,0,0.2C117.2,6.9,116.6,7.3,115.7,7.3z
		 M151.3,10.6h0.9V4.9h2.3V4H149v0.9h2.3V10.6z M127.7,19.9c-1.3,0-2.4-1.1-2.4-2.4c0,0,0-0.1,0-0.1c-0.1-1.3,0.9-2.5,2.2-2.6
		c0.1,0,0.1,0,0.2,0c0.7,0,1.3,0.3,1.7,0.8l0.6-0.7c-0.6-0.6-1.4-0.9-2.3-0.9c-1.8-0.1-3.2,1.3-3.3,3.1c0,0.1,0,0.2,0,0.3
		c-0.1,1.8,1.4,3.3,3.2,3.4c0,0,0.1,0,0.1,0c0.9,0,1.8-0.4,2.4-1l-0.6-0.7C129.1,19.6,128.4,19.9,127.7,19.9z M121.9,4h-2.3v6.6h1
		V8.2h1.3c1.2,0.1,2.2-0.7,2.3-1.9c0-0.1,0-0.1,0-0.2c0-1.2-0.9-2.1-2.1-2.1C122,4,122,4,121.9,4z M121.8,7.4h-1.2V4.8h1.2
		c0.7-0.1,1.4,0.4,1.5,1.1c0,0.1,0,0.1,0,0.2C123.3,7,122.7,7.4,121.8,7.4z M145,7.7h2.8V6.9H145v-2h3.2V4h-4.1v6.6h4.2V9.8H145V7.7
		z M104.6,10.6V4.9h2.3V4h-5.5v0.9h2.3v5.7H104.6z M107.2,14c-1.8-0.1-3.2,1.3-3.3,3.1c0,0.1,0,0.2,0,0.3c-0.1,1.8,1.4,3.3,3.2,3.4
		c0,0,0.1,0,0.1,0c1.9,0,3.4-1.5,3.4-3.4c0,0,0,0,0,0c0.1-1.8-1.4-3.3-3.2-3.4C107.3,14,107.3,14,107.2,14z M107.2,19.9
		c-1.3,0.1-2.3-0.9-2.4-2.2c0-0.1,0-0.2,0-0.3c0-1.3,1.1-2.4,2.4-2.4s2.4,1.1,2.4,2.4c0.1,1.3-0.8,2.4-2.1,2.5
		C107.4,19.9,107.3,19.9,107.2,19.9z M160.1,14c-1.8-0.1-3.2,1.3-3.3,3.1c0,0.1,0,0.2,0,0.3c0,1.8,1.5,3.3,3.3,3.3s3.3-1.5,3.3-3.3
		c0.1-1.8-1.2-3.3-3-3.4C160.3,14,160.2,14,160.1,14z M160.1,19.9c-1.3,0.1-2.3-0.9-2.4-2.2c0-0.1,0-0.2,0-0.3
		c0-1.3,1.1-2.4,2.4-2.4c1.3,0,2.4,1.1,2.4,2.4c0.1,1.3-0.8,2.4-2.1,2.5C160.3,19.9,160.2,19.9,160.1,19.9z M113.9,14l-3,6.7h1
		l0.6-1.4h2.9l0.6,1.4h1L113.9,14L113.9,14z M112.8,18.5l1.1-2.5l1.2,2.5H112.8z M103,16.1c0-1.1-0.9-2-2-2c-0.1,0-0.2,0-0.3,0h-2.2
		v6.6h0.9v-2.5h1.3l1.6,2.5h1l-1.6-2.7C102.5,17.7,103,17,103,16.1z M100.6,17.3h-1.2v-2.4h1.2c0.9,0,1.5,0.4,1.5,1.2
		S101.5,17.3,100.6,17.3z M139.5,16.9c-1.1-0.3-1.5-0.5-1.5-1.1s0.5-1,1.3-1c0.6,0,1.1,0.2,1.6,0.6l0.5-0.7
		c-0.6-0.5-1.3-0.8-2.1-0.7c-1.3,0-2.2,0.7-2.2,1.9s0.5,1.5,2.2,1.9s1.5,0.5,1.5,1s-0.6,1.1-1.4,1.1c-0.7,0-1.4-0.2-1.9-0.7
		l-0.5,0.7c0.6,0.6,1.5,0.9,2.4,0.9c1.1,0.2,2.1-0.6,2.3-1.7c0-0.1,0-0.2,0-0.3C141.7,17.8,141.1,17.2,139.5,16.9z M85.4,20.7h0.9V4
		h-0.9V20.7z"/>
	<path class="st0" d="M25.2,6.9C23,2.3,16.2,1,10.2,4s-9,9.2-6.7,13.8s9,5.9,15,2.9S27.5,11.6,25.2,6.9z M18.1,19.9
		c-4.2,2.1-9.3,0.5-11.5-3.6c-2.1-4.1-0.2-9.2,4.2-11.4c4.2-2.2,9.4-0.7,11.6,3.5C24.3,12.8,22.4,17.9,18.1,19.9z M19.2,12.1
		l-7.7-4.7c-0.2-0.1-0.4,0.1-0.5,0.3c0,0,0,0,0,0V17c0,0.2,0,0.3,0.2,0.4c0.1,0,0.2,0,0.3-0.1l7.7-4.6
		C19.4,12.5,19.4,12.2,19.2,12.1z"/>
	<path class="st1" d="M42.5,4.1h-5.7v16.6h4.1v-5.2h1.6c3.1-0.1,5.6-2.6,5.7-5.7C48.2,6.7,45.6,4.1,42.5,4.1z M44.6,9.9L41.2,12
		c-0.2,0.1-0.3,0-0.3-0.1V7.7c0-0.1,0.1-0.2,0.3-0.1l3.4,2.1C44.7,9.7,44.7,9.9,44.6,9.9z M29.3,20.7h4.2V4.1h-4.2V20.7z"/>
	<path class="st0" d="M76.2,14.5c-0.6,1.6-2.2,2.7-3.9,2.7c-2.5,0-4.3-2-4.3-4.8s1.8-4.9,4.3-4.9c1.7,0,3.3,1.1,3.9,2.7l3.5-2.1
		c-1.5-2.6-4.4-4.2-7.4-4.2c-4.5-0.1-8.3,3.5-8.4,8c0,0.2,0,0.3,0,0.5c-0.2,4.5,3.4,8.3,7.9,8.5c0.2,0,0.3,0,0.5,0
		c3,0,5.8-1.6,7.4-4.2L76.2,14.5z M59.7,12c1-0.9,1.5-2.1,1.5-3.4c0-2.4-2-4.4-4.4-4.5h-6.7v16.6h8c2.5,0,4.5-2,4.5-4.5
		C62.6,14.3,61.4,12.7,59.7,12z M54.2,10.7V7.4c0-0.1,0.1-0.2,0.2-0.2l0,0l2.8,1.7c0.1,0.1,0.1,0.2,0,0.2l-2.8,1.7
		C54.3,10.9,54.2,10.8,54.2,10.7z M57.8,15.8l-3.3,1.9c0,0.1-0.2,0-0.2-0.1v-4h0.2l3.3,2C57.8,15.7,57.8,15.7,57.8,15.8z"/>
</g>
</svg>
